#!OML:ASF I:\Random Stuff\random\construction\7_22_03\Session 2\subj1.ASF
:FULLY-SPECIFIED
:DEGREES
536
root -7.34898 17.8541 3.20065 30.3755 70.7365 18.2477
lowerback 18.8881 0.0563666 10.6336
upperback 6.56909 2.72664 5.7847
thorax -3.2531 1.55635 -0.396643
lowerneck -21.0428 -9.05033 -7.65707
upperneck 23.2584 -13.3564 12.1386
head 12.6485 -5.0076 3.5242
rclavicle 1.59028e-014 1.33583e-013
rhumerus -1.39793 4.93329 -64.5561
rradius 35.5383
rwrist -2.06644
rhand -24.545 29.2887
rfingers 7.12502
rthumb 1.95104 -0.68212
lclavicle 1.59028e-014 1.33583e-013
lhumerus -26.6873 -29.6854 97.7055
lradius 60.1449
lwrist 40.2372
lhand -16.2086 59.0848
lfingers 7.12502
lthumb -170.001 -91.1727
rfemur -29.374 -3.35055 18.1963
rtibia 25.2111
rfoot -5.96433 -20.8986
rtoes 1.13069
lfemur -24.2656 -2.12842 -19.8602
ltibia 25.1818
lfoot -9.56156 -0.257942
ltoes -26.8436
537
root -7.34026 17.8505 3.17119 28.9514 71.0242 17.234
lowerback 18.5957 0.065356 10.4583
upperback 6.3286 2.66632 5.69517
thorax -3.37044 1.50907 -0.381722
lowerneck -20.9126 -9.14744 -7.53906
upperneck 23.1384 -13.4246 11.7561
head 12.5361 -5.08884 3.34504
rclavicle -1.59028e-014 6.36111e-014
rhumerus -4.38395 6.39175 -64.8939
rradius 36.9168
rwrist -3.59306
rhand -25.1929 26.912
rfingers 7.12502
rthumb 1.32523 -3.06363
lclavicle -1.59028e-014 6.36111e-014
lhumerus -27.1039 -28.3376 97.6486
lradius 59.692
lwrist 39.8783
lhand -16.1701 58.9636
lfingers 7.12502
lthumb -169.964 -91.2957
rfemur -28.6411 -3.07024 18.4165
rtibia 24.9031
rfoot -5.84801 -21.2165
rtoes 1.49007
lfemur -23.3439 -1.98489 -19.5111
ltibia 26.3014
lfoot -9.95884 -0.879068
ltoes -26.3402
538
root -7.32663 17.8414 3.13669 27.7804 71.2397 16.4896
lowerback 18.2202 0.0468424 10.1171
upperback 6.11518 2.52507 5.58736
thorax -3.42741 1.42484 -0.27654
lowerneck -20.5239 -9.33154 -7.77524
upperneck 22.9978 -13.6155 11.7521
head 12.443 -5.21736 3.35255
rclavicle -9.54166e-015 1.59028e-014
rhumerus -7.43132 7.80414 -65.4657
rradius 38.3984
rwrist -4.64428
rhand -26.2707 24.9158
rfingers 7.12502
rthumb 0.284291 -5.06376
lclavicle -9.54166e-015 1.59028e-014
lhumerus -27.4983 -26.5487 97.5094
lradius 59.2948
lwrist 39.8637
lhand -16.1314 58.8314
lfingers 7.12502
lthumb -169.927 -91.4297
rfemur -27.8595 -2.86135 18.5143
rtibia 24.5029
rfoot -5.63019 -21.4874
rtoes 1.52437
lfemur -22.3075 -1.74424 -19.3204
ltibia 27.4238
lfoot -10.5282 -1.60056
ltoes -27.5518
539
root -7.30704 17.8324 3.09646 26.5793 71.4024 15.7606
lowerback 17.8232 0.0214753 9.75512
upperback 5.94625 2.36677 5.47085
thorax -3.42417 1.33663 -0.164796
lowerneck -20.2974 -9.52847 -7.92963
upperneck 22.8917 -13.8232 11.648
head 12.3822 -5.35136 3.30145
rclavicle -3.81667e-014 6.04305e-014
rhumerus -10.4133 8.94154 -66.1738
rradius 39.7871
rwrist -5.4516
rhand -27.329 23.4715
rfingers 7.12502
rthumb -0.737846 -6.507
lclavicle -3.81667e-014 6.04305e-014
lhumerus -27.8919 -24.5788 97.3567
lradius 59.0135
lwrist 40.1103
lhand -16.0832 58.9187
lfingers 7.12502
lthumb -169.88 -91.3447
rfemur -26.9607 -2.66773 18.5641
rtibia 23.9708
rfoot -5.35712 -21.7068
rtoes 1.45948
lfemur -21.1723 -1.57031 -19.1239
ltibia 28.5432
lfoot -11.286 -2.31985
ltoes -28.3615
540
root -7.29017 17.8261 3.0601 24.266 71.6073 13.8141
lowerback 17.4262 0.0173226 9.61781
upperback 5.7722 2.28744 5.4648
thorax -3.41319 1.28937 -0.0748825
lowerneck -19.9836 -9.75876 -8.16258
upperneck 22.5588 -14.0827 11.7125
head 12.2448 -5.50741 3.31603
rclavicle -5.56597e-014 9.85972e-014
rhumerus -13.3525 9.84942 -66.946
rradius 41.0621
rwrist -6.32105
rhand -27.7026 22.5811
rfingers 7.12502
rthumb -1.09871 -7.39586
lclavicle -5.56597e-014 9.85972e-014
lhumerus -28.4042 -22.5847 97.1996
lradius 58.9657
lwrist 40.4271
lhand -16.2257 59.3357
lfingers 7.12502
lthumb -170.018 -90.921
rfemur -26.0741 -1.98716 18.9719
rtibia 23.3569
rfoot -4.99259 -22.2737
rtoes 1.39275
lfemur -20.1251 -1.48182 -18.4047
ltibia 29.5646
lfoot -11.839 -2.90675
ltoes -27.643
541
root -7.27615 17.8216 3.02866 21.4157 71.8078 11.231
lowerback 16.9384 0.0217803 9.53862
upperback 5.58278 2.2224 5.51418
thorax -3.36784 1.25036 0.0402902
lowerneck -19.8495 -10.0519 -8.36708
upperneck 22.5305 -14.4347 11.6642
head 12.2607 -5.69525 3.26448
rclavicle -7.63333e-014 -4.45278e-014
rhumerus -16.2539 10.5703 -67.7408
rradius 42.1689
rwrist -7.13107
rhand -27.3687 22.3459
rfingers 7.12502
rthumb -0.776181 -7.63244
lclavicle -7.63333e-014 -4.45278e-014
lhumerus -29.067 -20.6276 97.0112
lradius 59.1216
lwrist 40.7181
lhand -16.5379 59.6088
lfingers 7.12502
lthumb -170.319 -90.6337
rfemur -25.2282 -1.138 19.5861
rtibia 22.6628
rfoot -4.69309 -22.9155
rtoes 1.34729
lfemur -19.1483 -1.44242 -17.4131
ltibia 30.433
lfoot -12.1948 -3.3865
ltoes -26.6572
542
root -7.26007 17.8251 2.98504 20.0176 71.9041 10.1007
lowerback 16.3065 0.0205439 9.16969
upperback 5.39373 2.06782 5.4003
thorax -3.25446 1.1665 0.15973
lowerneck -19.6624 -10.3488 -8.56878
upperneck 22.5069 -14.798 11.6202
head 12.2702 -5.889 3.2136
rclavicle 2.8625e-014 2.54444e-014
rhumerus -18.9312 10.784 -68.4112
rradius 42.8962
rwrist -7.88603
rhand -25.6134 22.9998
rfingers 7.12502
rthumb 0.919148 -6.97799
lclavicle 2.8625e-014 2.54444e-014
lhumerus -29.6786 -18.7697 96.7871
lradius 59.1851
lwrist 40.9478
lhand -16.8272 59.705
lfingers 7.12502
lthumb -170.598 -90.5247
rfemur -24.4203 -0.685448 19.7006
rtibia 21.8859
rfoot -4.46318 -23.2637
rtoes 1.40477
lfemur -18.1867 -1.49764 -16.9729
ltibia 31.13
lfoot -12.5136 -3.91299
ltoes -25.8408
543
root -7.24786 17.8332 2.92514 19.7246 71.9035 10.0342
lowerback 15.7411 0.05115 8.57264
upperback 5.13965 1.92818 5.19209
thorax -3.24725 1.08192 0.299725
lowerneck -19.5008 -10.6739 -8.75306
upperneck 22.4865 -15.1956 11.5344
head 12.2846 -6.10041 3.13621
rclavicle -3.18055e-015 5.40694e-014
rhumerus -21.4912 11.0857 -69.0965
rradius 43.4269
rwrist -7.99661
rhand -24.9437 22.6945
rfingers 7.12502
rthumb 1.56597 -7.27946
lclavicle -3.18055e-015 5.40694e-014
lhumerus -30.1562 -17.1761 96.6409
lradius 59.0637
lwrist 41.0694
lhand -17.1298 59.9684
lfingers 7.12502
lthumb -170.89 -90.2483
rfemur -23.7576 -0.119232 19.352
rtibia 21.1639
rfoot -4.21269 -23.7827
rtoes 1.8746
lfemur -17.2514 -1.58348 -16.9626
ltibia 31.5811
lfoot -12.7436 -4.32857
ltoes -25.303
544
root -7.23913 17.8349 2.86294 18.8236 71.865 9.3428
lowerback 15.2531 0.100733 8.03673
upperback 4.86825 1.84735 5.06767
thorax -3.29382 1.02609 0.483291
lowerneck -19.2735 -10.9696 -9.06787
upperneck 22.3841 -15.5683 11.6658
head 12.2868 -6.29083 3.16672
rclavicle -2.54444e-014 3.18055e-014
rhumerus -23.9811 11.413 -69.7031
rradius 43.7986
rwrist -8.19265
rhand -23.7345 22.706
rfingers 7.12502
rthumb 2.73375 -7.25627
lclavicle -2.54444e-014 3.18055e-014
lhumerus -30.6833 -15.9248 96.5608
lradius 59.0375
lwrist 41.2373
lhand -17.4744 60.2494
lfingers 7.12502
lthumb -171.222 -270.047
rfemur -23.1575 0.844663 19.144
rtibia 20.5613
rfoot -4.01468 -24.6404
rtoes 2.72932
lfemur -16.2327 -1.63193 -16.7515
ltibia 31.7479
lfoot -12.8429 -4.47645
ltoes -24.7851
545
root -7.23148 17.832 2.79968 17.6467 71.7759 8.41672
lowerback 14.7011 0.133543 7.54239
upperback 4.63145 1.74607 4.93645
thorax -3.26502 0.96455 0.641547
lowerneck -18.9114 -11.1216 -9.39549
upperneck 22.2651 -15.7684 11.903
head 12.2493 -6.39938 3.2789
rclavicle -5.56597e-015 7.95139e-014
rhumerus -26.3965 11.8798 -70.3864
rradius 44.0045
rwrist -8.29538
rhand -22.4701 22.8417
rfingers 7.12502
rthumb 3.95484 -7.10137
lclavicle -5.56597e-015 7.95139e-014
lhumerus -31.2508 -14.9426 96.4243
lradius 58.9656
lwrist 41.4123
lhand -17.6845 60.2356
lfingers 7.12502
lthumb -171.425 -270.041
rfemur -22.5289 1.94303 18.9965
rtibia 19.9812
rfoot -3.86917 -25.6146
rtoes 3.62231
lfemur -15.1193 -1.66233 -16.4803
ltibia 31.6883
lfoot -12.7591 -4.51005
ltoes -23.4863
